<?xml version="1.0" standalone="no"?>
<!DOCTYPE svg PUBLIC "-//W3C//DTD SVG 20010904//EN"
 "http://www.w3.org/TR/2001/REC-SVG-20010904/DTD/svg10.dtd">
<svg version="1.0" xmlns="http://www.w3.org/2000/svg"
 width="231" height="134" viewBox="0 0 512.000000 512.000000"
 preserveAspectRatio="xMidYMid meet">

<g transform="translate(0.000000,512.000000) scale(0.100000,-0.100000)"
fill="#fff" stroke="none">
<path d="M2640 5099 c-26 -12 -71 -49 -110 -90 l-65 -69 -115 -2 c-114 -2
-116 -2 -236 44 -146 56 -179 63 -230 49 -55 -15 -96 -62 -143 -162 l-39 -86
-89 -38 -88 -39 -180 -4 c-160 -4 -184 -6 -218 -25 -54 -30 -85 -99 -93 -209
l-7 -87 -71 -64 c-88 -79 -91 -81 -256 -134 -138 -45 -176 -68 -206 -125 -19
-37 -17 -119 5 -206 l19 -73 -51 -91 c-50 -87 -58 -96 -176 -187 -68 -53 -133
-108 -143 -122 -49 -66 -38 -149 36 -259 l47 -71 -16 -92 c-17 -101 -40 -151
-120 -267 -71 -103 -87 -136 -87 -184 1 -76 32 -124 131 -201 l58 -44 16 -98
c18 -108 13 -150 -34 -304 -27 -89 -29 -172 -6 -216 23 -44 67 -72 166 -107
l86 -31 48 -93 c47 -90 48 -96 58 -215 18 -236 27 -263 109 -304 37 -19 61
-23 138 -23 l95 0 74 -66 c79 -71 107 -117 173 -282 39 -98 59 -126 111 -152
53 -27 105 -25 204 9 l85 30 83 -37 c114 -52 116 -54 226 -178 103 -115 144
-144 205 -144 51 0 90 18 170 80 l69 53 96 -7 c104 -8 130 -18 331 -127 82
-45 100 -50 137 -46 71 8 101 34 209 182 18 26 36 34 113 54 103 27 129 26
312 -9 95 -18 122 -20 157 -11 79 22 131 102 158 246 6 32 16 43 78 82 98 64
119 71 267 94 72 11 147 26 167 35 87 36 115 101 106 247 l-6 92 59 75 c69 87
69 87 235 174 148 79 171 103 176 192 4 54 -1 73 -32 146 l-36 84 30 88 c33
99 69 152 170 251 84 82 110 127 110 190 0 59 -26 108 -95 183 l-55 60 0 94
c0 105 13 156 73 274 53 105 72 178 58 224 -15 51 -66 100 -153 148 l-74 40
-34 97 -33 97 13 158 c7 87 10 174 6 194 -15 79 -89 130 -218 149 l-80 11 -58
76 c-65 86 -81 124 -115 273 -29 133 -59 188 -118 216 -50 24 -83 25 -187 6
l-75 -13 -73 45 c-85 53 -123 95 -199 218 -89 145 -126 175 -211 175 -37 0
-70 -10 -140 -45 l-92 -45 -90 25 c-105 27 -136 45 -245 134 -136 112 -189
129 -275 90z m225 -435 c457 -62 872 -270 1211 -608 511 -512 723 -1217 579
-1933 -163 -809 -829 -1480 -1637 -1647 -181 -38 -319 -49 -516 -43 -361 11
-688 103 -989 278 -834 487 -1239 1445 -1004 2373 184 726 770 1324 1488 1521
297 82 565 100 868 59z"/>
<path d="M2420 4564 c-14 -2 -65 -9 -115 -15 -179 -22 -396 -89 -595 -182
-322 -152 -631 -429 -828 -743 -148 -237 -248 -512 -288 -792 -19 -138 -19
-406 0 -544 63 -440 256 -828 571 -1144 545 -547 1337 -734 2065 -487 294 100
545 256 771 482 315 316 506 692 575 1136 23 146 23 420 0 570 -52 342 -186
657 -397 937 -79 105 -269 295 -375 375 -354 269 -796 416 -1234 412 -69 -1
-136 -3 -150 -5z m470 -148 c398 -68 743 -247 1025 -530 288 -289 469 -645
531 -1046 22 -143 22 -421 0 -560 -66 -410 -243 -758 -536 -1050 -372 -373
-855 -564 -1380 -547 -353 12 -643 98 -932 277 -411 255 -716 669 -833 1129
-75 297 -77 635 -4 926 147 592 595 1094 1164 1305 126 47 275 85 385 99 47 6
96 13 110 15 53 9 389 -4 470 -18z"/>
<path d="M2570 4031 c-99 -32 -168 -95 -199 -182 -37 -99 -106 -152 -215 -165
-47 -5 -79 1 -148 31 -25 10 -23 -20 5 -75 30 -60 99 -95 220 -111 196 -25
398 41 480 158 l31 43 16 -28 c44 -72 143 -134 260 -163 118 -29 325 -10 393
35 42 28 77 82 77 118 l0 29 -31 -16 c-48 -25 -119 -29 -183 -11 -77 23 -130
71 -157 147 -43 119 -146 194 -266 194 -51 0 -66 -4 -84 -22 l-22 -21 -28 20
c-30 23 -108 33 -149 19z"/>
<path d="M1505 3740 l-39 -40 562 -563 562 -562 -542 -542 -543 -543 40 -40
39 -40 543 542 543 543 523 -523 523 -522 39 40 40 40 -523 523 -522 522 542
542 542 543 -39 40 -39 40 -543 -542 -543 -543 -563 563 -563 562 -39 -40z"/>
<path d="M3842 3341 c-20 -12 -5 -1476 15 -1493 9 -8 55 -9 149 -5 75 3 138 7
140 10 3 2 2 12 -2 21 -5 13 -22 16 -104 16 -100 0 -130 5 -130 21 0 5 52 9
115 9 96 0 115 3 115 15 0 12 -19 15 -115 15 -150 0 -153 18 -3 22 78 2 113 7
116 16 3 9 -24 12 -113 12 -89 0 -116 3 -113 13 3 8 38 13 117 15 83 2 111 6
108 15 -3 9 -35 11 -116 10 -61 -1 -111 1 -111 6 0 14 40 21 133 21 74 0 87 2
87 16 0 15 -12 16 -110 9 -97 -6 -110 -5 -110 9 0 14 16 16 110 16 91 0 110 3
110 15 0 12 -19 15 -110 15 -67 0 -110 4 -110 10 0 6 43 10 110 10 91 0 110 3
110 15 0 12 -19 15 -110 15 -67 0 -110 4 -110 10 0 6 43 10 110 10 91 0 110 3
110 15 0 12 -19 15 -110 15 -91 0 -110 3 -110 15 0 12 19 15 110 15 91 0 110
3 110 15 0 12 -19 15 -110 15 -67 0 -110 4 -110 10 0 6 43 10 110 10 91 0 110
3 110 15 0 12 -19 15 -110 15 -91 0 -110 3 -110 15 0 12 19 15 110 15 93 0
110 2 110 16 0 13 -14 14 -110 8 -98 -6 -110 -5 -110 10 0 14 15 16 110 16 91
0 110 3 110 15 0 12 -19 15 -110 15 -67 0 -110 4 -110 10 0 6 43 10 110 10 91
0 110 3 110 15 0 12 -19 15 -110 15 -67 0 -110 4 -110 10 0 6 43 10 110 10 91
0 110 3 110 15 0 12 -19 15 -110 15 -91 0 -110 3 -110 15 0 12 19 15 110 15
91 0 110 3 110 15 0 12 -19 15 -110 15 -67 0 -110 4 -110 10 0 6 43 10 110 10
91 0 110 3 110 15 0 12 -19 15 -110 15 -67 0 -110 4 -110 10 0 6 36 10 88 10
48 0 97 3 110 6 49 14 16 23 -88 26 -65 2 -110 7 -110 13 0 6 45 11 110 13 89
2 110 5 110 17 0 12 -21 15 -115 15 -70 0 -115 4 -115 10 0 6 45 10 115 10 96
0 115 3 115 15 0 12 -19 15 -115 15 -63 0 -115 4 -115 9 0 13 54 21 147 21 63
0 84 3 80 13 -3 8 -35 12 -112 12 -78 0 -109 4 -112 13 -4 9 23 12 111 12 96
0 116 3 116 15 0 12 -19 15 -115 15 -70 0 -115 4 -115 10 0 6 28 10 63 10 84
0 167 11 167 21 0 5 -52 9 -115 9 -70 0 -115 4 -115 10 0 6 35 10 84 10 92 0
146 8 146 21 0 5 -52 9 -115 9 -96 0 -115 3 -115 15 0 12 20 15 116 15 88 0
115 3 112 13 -3 8 -38 13 -116 15 -62 1 -112 7 -112 12 0 5 50 11 112 12 78 2
113 7 116 16 3 9 -24 12 -113 12 -89 0 -116 3 -113 13 3 8 37 13 111 15 91 2
107 5 107 19 0 14 -13 15 -110 9 -95 -5 -110 -4 -110 9 0 12 18 15 110 15 91
0 110 3 110 15 0 12 -19 15 -111 15 -71 0 -108 4 -104 10 3 6 48 10 100 10
107 0 125 5 125 31 0 18 -9 19 -137 19 -76 0 -144 -4 -151 -9z"/>
<path d="M1260 3200 c0 -6 38 -128 86 -271 l85 -259 37 -19 c33 -17 40 -28 59
-88 12 -37 44 -140 72 -229 40 -127 58 -167 82 -192 61 -62 142 -60 198 4 27
30 31 42 31 90 0 88 -30 128 -128 176 -38 17 -90 55 -128 91 -61 60 -70 75
-224 385 -88 177 -162 322 -165 322 -3 0 -5 -5 -5 -10z m238 -497 c5 -17 -26
-29 -40 -15 -6 6 -7 15 -3 22 9 14 37 9 43 -7z m323 -364 c38 -27 55 -84 39
-133 -23 -69 -87 -87 -141 -38 -26 23 -33 38 -37 80 -4 47 -2 54 26 82 36 36
72 39 113 9z"/>
<path d="M1652 3098 c-33 -62 -81 -155 -107 -207 l-47 -94 23 -49 c12 -26 24
-46 26 -45 8 8 174 500 170 504 -3 2 -32 -47 -65 -109z"/>
<path d="M1403 2613 c-31 -65 -120 -145 -216 -192 -68 -32 -93 -51 -113 -81
-51 -77 -29 -184 46 -223 63 -32 151 -2 185 64 15 29 155 427 155 441 0 4 -9
12 -19 18 -17 9 -22 5 -38 -27z m-152 -272 c42 -42 41 -106 -2 -156 -25 -28
-38 -35 -68 -35 -76 0 -115 92 -69 160 44 65 94 76 139 31z"/>
<path d="M3295 1504 c-129 -117 -330 -233 -579 -334 l-144 -58 -48 27 c-112
62 -195 123 -190 138 5 11 -43 38 -191 110 l-197 95 -24 -27 c-46 -53 -41 -57
275 -214 271 -134 292 -147 287 -168 -9 -35 47 -66 108 -58 40 5 57 0 122 -32
41 -20 78 -34 82 -30 9 9 -22 44 -58 65 -16 9 -28 19 -28 23 0 3 19 12 43 18
91 28 508 256 615 337 38 29 41 58 12 122 -10 23 -20 42 -22 42 -2 -1 -30 -26
-63 -56z m55 -45 c0 -5 -7 -9 -15 -9 -15 0 -20 12 -9 23 8 8 24 -1 24 -14z
m-768 -394 c0 -5 -5 -11 -11 -13 -6 -2 -11 4 -11 13 0 9 5 15 11 13 6 -2 11
-8 11 -13z"/>
</g>
</svg>
